<mxfile host="Electron" agent="Mozilla/5.0 (Windows NT 10.0; Win64; x64) AppleWebKit/537.36 (KHTML, like Gecko) draw.io/24.7.8 Chrome/128.0.6613.36 Electron/32.0.1 Safari/537.36" version="24.7.8">
  <diagram name="Page-1" id="BVbFhMp2UUEZdrDh2XAU">
    <mxGraphModel dx="964" dy="1102" grid="1" gridSize="10" guides="1" tooltips="1" connect="1" arrows="1" fold="1" page="1" pageScale="1" pageWidth="850" pageHeight="1100" math="0" shadow="0">
      <root>
        <mxCell id="0" />
        <mxCell id="1" parent="0" />
        <mxCell id="vzavHffehXkvL-5UF2VI-6" style="edgeStyle=orthogonalEdgeStyle;rounded=0;orthogonalLoop=1;jettySize=auto;html=1;exitX=0.5;exitY=1;exitDx=0;exitDy=0;entryX=0.5;entryY=0;entryDx=0;entryDy=0;" edge="1" parent="1" source="vzavHffehXkvL-5UF2VI-11" target="vzavHffehXkvL-5UF2VI-2">
          <mxGeometry relative="1" as="geometry" />
        </mxCell>
        <mxCell id="vzavHffehXkvL-5UF2VI-1" value="Start" style="rounded=1;whiteSpace=wrap;html=1;" vertex="1" parent="1">
          <mxGeometry x="365" y="20" width="120" height="60" as="geometry" />
        </mxCell>
        <mxCell id="vzavHffehXkvL-5UF2VI-7" style="edgeStyle=orthogonalEdgeStyle;rounded=0;orthogonalLoop=1;jettySize=auto;html=1;exitX=0.5;exitY=1;exitDx=0;exitDy=0;entryX=0.5;entryY=0;entryDx=0;entryDy=0;" edge="1" parent="1" source="vzavHffehXkvL-5UF2VI-2" target="vzavHffehXkvL-5UF2VI-3">
          <mxGeometry relative="1" as="geometry" />
        </mxCell>
        <mxCell id="vzavHffehXkvL-5UF2VI-2" value="first_num" style="rounded=0;whiteSpace=wrap;html=1;" vertex="1" parent="1">
          <mxGeometry x="365" y="280" width="120" height="60" as="geometry" />
        </mxCell>
        <mxCell id="vzavHffehXkvL-5UF2VI-8" style="edgeStyle=orthogonalEdgeStyle;rounded=0;orthogonalLoop=1;jettySize=auto;html=1;exitX=0.5;exitY=1;exitDx=0;exitDy=0;" edge="1" parent="1" source="vzavHffehXkvL-5UF2VI-3">
          <mxGeometry relative="1" as="geometry">
            <mxPoint x="425.090909090909" y="440" as="targetPoint" />
          </mxGeometry>
        </mxCell>
        <mxCell id="vzavHffehXkvL-5UF2VI-3" value="second_num" style="rounded=0;whiteSpace=wrap;html=1;" vertex="1" parent="1">
          <mxGeometry x="365" y="360" width="120" height="60" as="geometry" />
        </mxCell>
        <mxCell id="vzavHffehXkvL-5UF2VI-9" value="" style="edgeStyle=orthogonalEdgeStyle;rounded=0;orthogonalLoop=1;jettySize=auto;html=1;" edge="1" parent="1" source="vzavHffehXkvL-5UF2VI-4" target="vzavHffehXkvL-5UF2VI-5">
          <mxGeometry relative="1" as="geometry" />
        </mxCell>
        <mxCell id="vzavHffehXkvL-5UF2VI-4" value="third_num" style="rounded=0;whiteSpace=wrap;html=1;" vertex="1" parent="1">
          <mxGeometry x="365" y="450" width="120" height="60" as="geometry" />
        </mxCell>
        <mxCell id="vzavHffehXkvL-5UF2VI-15" value="" style="edgeStyle=orthogonalEdgeStyle;rounded=0;orthogonalLoop=1;jettySize=auto;html=1;" edge="1" parent="1" source="vzavHffehXkvL-5UF2VI-5" target="vzavHffehXkvL-5UF2VI-14">
          <mxGeometry relative="1" as="geometry" />
        </mxCell>
        <mxCell id="vzavHffehXkvL-5UF2VI-5" value="range check" style="rounded=0;whiteSpace=wrap;html=1;" vertex="1" parent="1">
          <mxGeometry x="365" y="560" width="120" height="60" as="geometry" />
        </mxCell>
        <mxCell id="vzavHffehXkvL-5UF2VI-12" value="" style="edgeStyle=orthogonalEdgeStyle;rounded=0;orthogonalLoop=1;jettySize=auto;html=1;exitX=0.5;exitY=1;exitDx=0;exitDy=0;entryX=0.5;entryY=0;entryDx=0;entryDy=0;" edge="1" parent="1" source="vzavHffehXkvL-5UF2VI-1" target="vzavHffehXkvL-5UF2VI-11">
          <mxGeometry relative="1" as="geometry">
            <mxPoint x="425" y="80" as="sourcePoint" />
            <mxPoint x="425" y="280" as="targetPoint" />
          </mxGeometry>
        </mxCell>
        <mxCell id="vzavHffehXkvL-5UF2VI-11" value="while True" style="ellipse;whiteSpace=wrap;html=1;aspect=fixed;" vertex="1" parent="1">
          <mxGeometry x="385" y="130" width="80" height="80" as="geometry" />
        </mxCell>
        <mxCell id="vzavHffehXkvL-5UF2VI-18" value="" style="edgeStyle=orthogonalEdgeStyle;rounded=0;orthogonalLoop=1;jettySize=auto;html=1;" edge="1" parent="1" source="vzavHffehXkvL-5UF2VI-13" target="vzavHffehXkvL-5UF2VI-17">
          <mxGeometry relative="1" as="geometry" />
        </mxCell>
        <mxCell id="vzavHffehXkvL-5UF2VI-19" value="yes" style="edgeLabel;html=1;align=center;verticalAlign=middle;resizable=0;points=[];" vertex="1" connectable="0" parent="vzavHffehXkvL-5UF2VI-18">
          <mxGeometry x="-0.0258" relative="1" as="geometry">
            <mxPoint x="1" as="offset" />
          </mxGeometry>
        </mxCell>
        <mxCell id="vzavHffehXkvL-5UF2VI-21" value="" style="edgeStyle=orthogonalEdgeStyle;rounded=0;orthogonalLoop=1;jettySize=auto;html=1;" edge="1" parent="1" source="vzavHffehXkvL-5UF2VI-13" target="vzavHffehXkvL-5UF2VI-20">
          <mxGeometry relative="1" as="geometry" />
        </mxCell>
        <mxCell id="vzavHffehXkvL-5UF2VI-22" value="no" style="edgeLabel;html=1;align=center;verticalAlign=middle;resizable=0;points=[];" vertex="1" connectable="0" parent="vzavHffehXkvL-5UF2VI-21">
          <mxGeometry x="-0.0781" y="-4" relative="1" as="geometry">
            <mxPoint x="1" as="offset" />
          </mxGeometry>
        </mxCell>
        <mxCell id="vzavHffehXkvL-5UF2VI-13" value="second == dive and range == True" style="rhombus;whiteSpace=wrap;html=1;" vertex="1" parent="1">
          <mxGeometry x="385" y="770" width="80" height="80" as="geometry" />
        </mxCell>
        <mxCell id="vzavHffehXkvL-5UF2VI-16" value="" style="edgeStyle=orthogonalEdgeStyle;rounded=0;orthogonalLoop=1;jettySize=auto;html=1;" edge="1" parent="1" source="vzavHffehXkvL-5UF2VI-14" target="vzavHffehXkvL-5UF2VI-13">
          <mxGeometry relative="1" as="geometry" />
        </mxCell>
        <mxCell id="vzavHffehXkvL-5UF2VI-14" value="divergens" style="rounded=0;whiteSpace=wrap;html=1;" vertex="1" parent="1">
          <mxGeometry x="365" y="670" width="120" height="60" as="geometry" />
        </mxCell>
        <mxCell id="vzavHffehXkvL-5UF2VI-27" value="" style="edgeStyle=orthogonalEdgeStyle;rounded=0;orthogonalLoop=1;jettySize=auto;html=1;" edge="1" parent="1" source="vzavHffehXkvL-5UF2VI-17" target="vzavHffehXkvL-5UF2VI-26">
          <mxGeometry relative="1" as="geometry" />
        </mxCell>
        <mxCell id="vzavHffehXkvL-5UF2VI-17" value="diversion" style="shape=document;whiteSpace=wrap;html=1;boundedLbl=1;" vertex="1" parent="1">
          <mxGeometry x="560" y="770" width="120" height="80" as="geometry" />
        </mxCell>
        <mxCell id="vzavHffehXkvL-5UF2VI-25" style="edgeStyle=orthogonalEdgeStyle;rounded=0;orthogonalLoop=1;jettySize=auto;html=1;" edge="1" parent="1" source="vzavHffehXkvL-5UF2VI-20">
          <mxGeometry relative="1" as="geometry">
            <mxPoint x="240" y="890" as="targetPoint" />
          </mxGeometry>
        </mxCell>
        <mxCell id="vzavHffehXkvL-5UF2VI-20" value="try again" style="shape=document;whiteSpace=wrap;html=1;boundedLbl=1;" vertex="1" parent="1">
          <mxGeometry x="180" y="770" width="120" height="80" as="geometry" />
        </mxCell>
        <mxCell id="vzavHffehXkvL-5UF2VI-23" value="" style="endArrow=none;html=1;rounded=0;" edge="1" parent="1">
          <mxGeometry width="50" height="50" relative="1" as="geometry">
            <mxPoint x="220" y="900" as="sourcePoint" />
            <mxPoint x="290" y="900" as="targetPoint" />
          </mxGeometry>
        </mxCell>
        <mxCell id="vzavHffehXkvL-5UF2VI-24" value="" style="endArrow=none;html=1;rounded=0;" edge="1" parent="1">
          <mxGeometry width="50" height="50" relative="1" as="geometry">
            <mxPoint x="180" y="910" as="sourcePoint" />
            <mxPoint x="300" y="910" as="targetPoint" />
          </mxGeometry>
        </mxCell>
        <mxCell id="vzavHffehXkvL-5UF2VI-26" value="End" style="rounded=1;whiteSpace=wrap;html=1;" vertex="1" parent="1">
          <mxGeometry x="560" y="920" width="120" height="60" as="geometry" />
        </mxCell>
      </root>
    </mxGraphModel>
  </diagram>
</mxfile>
